<svg xmlns="http://www.w3.org/2000/svg" viewBox="0 0 64 64">
  <rect width="64" height="64" rx="14" fill="#000"/>
  <path d="M42.8 18.2c-2.2-1.4-3.6-3.8-3.9-6.2h-5.4v27.8c0 3.4-2.8 6.2-6.2 6.2s-6.2-2.8-6.2-6.2 2.8-6.2 6.2-6.2c.7 0 1.3.1 1.9.3V28c-.6-.1-1.3-.1-1.9-.1-6.5 0-11.8 5.3-11.8 11.8S20.8 51.5 27.3 51.5s11.8-5.3 11.8-11.8V27.4c2.3 1.6 5 2.6 7.9 2.6v-5.6c-1.6 0-3.1-.5-4.2-1.2" fill="#25f4ee" transform="translate(-1.5,-1.5)"/>
  <path d="M42.8 18.2c-2.2-1.4-3.6-3.8-3.9-6.2h-5.4v27.8c0 3.4-2.8 6.2-6.2 6.2s-6.2-2.8-6.2-6.2 2.8-6.2 6.2-6.2c.7 0 1.3.1 1.9.3V28c-.6-.1-1.3-.1-1.9-.1-6.5 0-11.8 5.3-11.8 11.8S20.8 51.5 27.3 51.5s11.8-5.3 11.8-11.8V27.4c2.3 1.6 5 2.6 7.9 2.6v-5.6c-1.6 0-3.1-.5-4.2-1.2" fill="#fe2c55" transform="translate(1.5,1.5)"/>
  <path d="M42.8 18.2c-2.2-1.4-3.6-3.8-3.9-6.2h-5.4v27.8c0 3.4-2.8 6.2-6.2 6.2s-6.2-2.8-6.2-6.2 2.8-6.2 6.2-6.2c.7 0 1.3.1 1.9.3V28c-.6-.1-1.3-.1-1.9-.1-6.5 0-11.8 5.3-11.8 11.8S20.8 51.5 27.3 51.5s11.8-5.3 11.8-11.8V27.4c2.3 1.6 5 2.6 7.9 2.6v-5.6c-1.6 0-3.1-.5-4.2-1.2" fill="#fff"/>
</svg>
